<svg width="125" height="87" viewBox="0 0 125 87" fill="none" xmlns="http://www.w3.org/2000/svg">
<path d="M12.6005 80.0266H11.7314L9.14663 82.7524V80.0266H8.44128V84.7501H9.14663V83.6079L10.1432 82.584L11.8224 84.7501H12.6551L10.6256 82.0744L12.6005 80.0266Z" fill="#545555"/>
<path d="M15.6449 83.9674L13.9248 80.0266H13.1466L15.2945 84.7319C15.0123 85.4008 14.7439 85.6193 14.3252 85.6193C14.0249 85.6193 13.8155 85.5647 13.5835 85.4463L13.3468 86.0061C13.6654 86.1608 13.9612 86.2427 14.3525 86.2427C15.067 86.2427 15.522 85.8877 15.9225 84.9094L17.9065 80.0266H17.1602L15.6449 83.9674Z" fill="#545555"/>
<path d="M19.026 84.7501H19.7313V80.65H22.4162V84.7501H23.1215V80.0266H19.026V84.7501Z" fill="#545555"/>
<path d="M26.7119 83.9674L24.9918 80.0266H24.2136L26.3615 84.7319C26.0794 85.4008 25.8109 85.6193 25.3922 85.6193C25.0919 85.6193 24.8826 85.5647 24.6505 85.4463L24.4138 86.0061C24.7324 86.1608 25.0282 86.2427 25.4195 86.2427C26.134 86.2427 26.589 85.8877 26.9895 84.9094L28.9735 80.0266H28.2227L26.7119 83.9674Z" fill="#545555"/>
<path d="M30.7984 83.7672V80.0266H30.093V84.7501H30.7711L33.5833 81.0141V84.7501H34.2887V80.0266H33.6015L30.7984 83.7672Z" fill="#545555"/>
<path d="M33.4559 78.2336L32.9735 78.1335C32.8643 78.5249 32.6186 78.7751 32.1681 78.7751C31.7221 78.7751 31.4718 78.5294 31.3626 78.1335L30.8802 78.2336C30.9895 78.8844 31.4855 79.3485 32.1681 79.3485C32.8552 79.3485 33.3467 78.8844 33.4559 78.2336Z" fill="#545555"/>
<path d="M41.0327 82.5112L39.2716 80.0266H38.6027V84.7501H39.2898V81.1506L41.0145 83.5442L42.7619 81.1506V84.7501H43.4763V80.0266H42.7983L41.0327 82.5112Z" fill="#545555"/>
<path d="M47.0212 79.9265C45.7152 79.9265 44.755 81.0232 44.755 82.3929C44.755 83.8627 45.8153 84.8593 47.1122 84.8593C48.0087 84.8593 48.582 84.5044 49.0599 83.972L48.623 83.5806C48.2408 83.9811 47.7811 84.2495 47.135 84.2495C46.3022 84.2495 45.5741 83.6716 45.4695 82.6796H49.2146C49.2237 82.5704 49.2237 82.4976 49.2237 82.4339C49.2237 81.0414 48.4182 79.9265 47.0212 79.9265ZM45.4649 82.1108C45.565 81.1961 46.1884 80.5226 46.9984 80.5226C47.9313 80.5226 48.4228 81.2552 48.5047 82.1108H45.4649Z" fill="#545555"/>
<path d="M52.8323 80.0812C51.8266 80.0812 51.2032 80.5453 50.8755 81.1051C50.9484 80.1995 51.276 79.6716 52.2544 79.4214L54.8118 78.7888L54.6753 78.1927L52.045 78.8161C50.3977 79.2075 50.2794 80.6728 50.2794 82.1972C50.2794 83.8445 51.2396 84.8547 52.673 84.8547C54.0701 84.8547 55.0939 83.7399 55.0939 82.4247C55.0985 81.1324 54.0655 80.0812 52.8323 80.0812ZM52.6958 84.2313C51.7447 84.2313 51.003 83.435 51.003 82.4475C51.003 81.46 51.6992 80.6637 52.6776 80.6637C53.6287 80.6637 54.3704 81.46 54.3704 82.4475C54.3704 83.435 53.6742 84.2313 52.6958 84.2313Z" fill="#545555"/>
<path d="M57.037 80.4179C57.037 83.9628 56.5638 84.2131 55.9949 84.2131C55.913 84.2131 55.7492 84.1767 55.6582 84.1494L55.5763 84.7546C55.7219 84.791 55.9858 84.8274 56.1406 84.8274C57.037 84.8274 57.7014 84.4452 57.7014 80.7592V80.65H59.6764V84.7546H60.3817V80.0311H57.037V80.4179Z" fill="#545555"/>
<path d="M62.7252 80.0266H62.0199V84.7501H62.7252V80.0266Z" fill="#545555"/>
<path d="M62.7798 78.2155H61.9744V78.9936H62.7798V78.2155Z" fill="#545555"/>
<path d="M67.1029 84.7501H67.8037V80.65H70.4931V84.7501H71.1939V80.0266H67.1029V84.7501Z" fill="#545555"/>
<path d="M75.2803 79.9265C74.4111 79.9265 73.8559 80.4088 73.4691 80.9777V80.0266H72.7638V86.2154H73.4691V83.8491C73.8332 84.377 74.402 84.8548 75.2803 84.8548C76.4225 84.8548 77.5374 83.9401 77.5374 82.3974C77.5374 80.8229 76.4134 79.9265 75.2803 79.9265ZM75.1529 84.2222C74.2746 84.2222 73.4418 83.4896 73.4418 82.3929C73.4418 81.2962 74.2746 80.5545 75.1529 80.5545C76.0493 80.5545 76.8184 81.2689 76.8184 82.3838C76.8184 83.5442 76.0675 84.2222 75.1529 84.2222Z" fill="#545555"/>
<path d="M81.0095 79.9265C79.5852 79.9265 78.5431 81.0596 78.5431 82.3929C78.5431 83.7444 79.5761 84.8593 80.9913 84.8593C82.4156 84.8593 83.4668 83.7262 83.4668 82.3929C83.4714 81.0414 82.4293 79.9265 81.0095 79.9265ZM81.0095 84.2313C80.0129 84.2313 79.2621 83.4077 79.2621 82.3929C79.2621 81.3781 79.9674 80.5454 80.9913 80.5454C81.9879 80.5454 82.7478 81.3781 82.7478 82.3929C82.7478 83.4077 82.0334 84.2313 81.0095 84.2313Z" fill="#545555"/>
<path d="M86.9071 84.2313C85.9196 84.2313 85.1687 83.4168 85.1687 82.3929C85.1687 81.3599 85.9014 80.5454 86.8615 80.5454C87.5032 80.5454 87.94 80.8457 88.3132 81.2416L88.7591 80.7683C88.3223 80.3042 87.7626 79.9265 86.8661 79.9265C85.4873 79.9265 84.4452 81.0596 84.4452 82.3929C84.4452 83.7353 85.4873 84.8593 86.8661 84.8593C87.7535 84.8593 88.3177 84.4771 88.7955 83.9446L88.3314 83.5169C87.9582 83.9219 87.5123 84.2313 86.9071 84.2313Z" fill="#545555"/>
<path d="M89.4099 80.65H91.1027V84.7501H91.8172V80.65H93.5054V80.0266H89.4099V80.65Z" fill="#545555"/>
<path d="M96.5224 79.9265C95.0981 79.9265 94.056 81.0596 94.056 82.3929C94.056 83.7444 95.089 84.8593 96.5042 84.8593C97.9286 84.8593 98.9798 83.7262 98.9798 82.3929C98.9798 81.0414 97.9377 79.9265 96.5224 79.9265ZM96.5224 84.2313C95.5259 84.2313 94.775 83.4077 94.775 82.3929C94.775 81.3781 95.4804 80.5454 96.5042 80.5454C97.5008 80.5454 98.2608 81.3781 98.2608 82.3929C98.2608 83.4077 97.5463 84.2313 96.5224 84.2313Z" fill="#545555"/>
<path d="M101.119 78.8752V78.3565H100.295V78.8752L100.509 82.9435H100.9L101.119 78.8752Z" fill="#545555"/>
<path d="M101.128 83.7945H100.286V84.7546H101.128V83.7945Z" fill="#545555"/>
<path d="M79.4032 18.8985L60.4955 0.0818787H49.8562L0.127441 49.8471H17.1876L55.2532 11.7632L79.4077 35.7994L97.4826 17.8565V49.8516H109.523V0.0818787H97.4826L79.4032 18.8985Z" fill="#1C964D"/>
<path d="M29.9974 12.9924L17.0419 0.0323486H0L21.4742 21.5111L29.9974 12.9924Z" fill="#604337"/>
<path d="M66.9027 49.8289L45.5559 28.5276L37.019 37.06L49.8016 49.8289H66.9027Z" fill="#604337"/>
<path d="M112.345 1.03753H114.374V6.38902H115.507V1.03753H117.533V0H112.345V1.03753Z" fill="#604337"/>
<path d="M123.808 0L121.86 3.02159L119.917 0H118.72V6.38902H119.826V1.82479L121.824 4.81907H121.86L123.881 1.80658V6.38902H125V0H123.808Z" fill="#604337"/>
<path d="M6.53009 65.0233L10.1159 59.781H7.43565L5.16491 63.2622L2.91237 59.781H0.15472L3.74058 65.0552L0 70.5113H2.68029L5.10576 66.8344L7.51302 70.5113H10.2707L6.53009 65.0233Z" fill="#604337"/>
<path d="M15.1489 65.5011C13.2012 65.5011 11.8361 66.3293 11.8361 68.1223C11.8361 69.7787 13.1102 70.6661 14.6574 70.6661C15.7905 70.6661 16.5732 70.252 17.142 69.624V70.5113H19.3946V65.7423C19.3946 64.6365 19.117 63.7355 18.5072 63.1212C17.9247 62.5387 17.0055 62.202 15.7314 62.202C14.3343 62.202 13.447 62.4614 12.5414 62.8618L13.1239 64.6411C13.8747 64.3635 14.5027 64.1951 15.3946 64.1951C16.5596 64.1951 17.1557 64.7321 17.1557 65.6968V65.8333C16.5732 65.6377 15.9771 65.5011 15.1489 65.5011ZM17.1875 67.2031V67.6172C17.1875 68.459 16.4504 69.0597 15.3628 69.0597C14.6119 69.0597 14.0886 68.6911 14.0886 68.0631C14.0886 67.2941 14.7029 66.8982 15.6995 66.8982C16.2683 66.8982 16.7871 67.021 17.1875 67.2031Z" fill="#604337"/>
<path d="M26.8302 62.1428C25.6198 62.1428 24.8371 62.7116 24.2683 63.4761V62.2975H21.9384V72.9686H24.2683V69.4419C24.8189 70.1017 25.5879 70.666 26.8302 70.666C28.7779 70.666 30.5708 69.1643 30.5708 66.4203C30.5708 63.6445 28.746 62.1428 26.8302 62.1428ZM26.2341 68.6911C25.1465 68.6911 24.2409 67.7855 24.2409 66.4249C24.2409 65.0278 25.1465 64.1268 26.2341 64.1268C27.3217 64.1268 28.2409 65.0324 28.2409 66.393C28.2409 67.7991 27.3217 68.6911 26.2341 68.6911Z" fill="#604337"/>
<path d="M37.7653 65.6695L40.7823 62.2975H38.102L35.1578 65.6695V62.2975H32.8279V70.5113H35.1578V68.5363L36.2181 67.385L38.4069 70.5113H41.1691L37.7653 65.6695Z" fill="#604337"/>
<path d="M45.2328 59.3214H42.78V61.392H45.2328V59.3214Z" fill="#604337"/>
<path d="M45.1691 62.2975H42.8392V70.5158H45.1691V62.2975Z" fill="#604337"/>
<path d="M53.847 66.2064C54.5524 65.9015 55.1485 65.3464 55.1485 64.3498C55.1485 63.062 54.0609 62.2975 52.4045 62.2975H47.8994V70.5158H52.3908C54.293 70.5158 55.4579 69.674 55.4579 68.277C55.4579 67.1257 54.8436 66.5113 53.847 66.2064ZM50.202 64.0131H51.8721C52.5456 64.0131 52.8231 64.3634 52.8231 64.7639C52.8231 65.2417 52.5001 65.5921 51.8402 65.5921H50.202V64.0131ZM52.0404 68.6911H50.202V67.0665H51.9813C52.7776 67.0665 53.1007 67.4214 53.1007 67.8628C53.0962 68.3498 52.7594 68.6911 52.0404 68.6911Z" fill="#604337"/>
<path d="M73.7513 70.5113V59.781H71.2075L68.3861 64.3225L65.5648 59.781H63.021V70.5113H65.3327V63.5535L68.3224 68.0904H68.3861L71.4032 63.508V70.5113H73.7513Z" fill="#604337"/>
<path d="M80.2814 62.1428C77.8878 62.1428 76.2178 64.0768 76.2178 66.4203C76.2178 68.9641 78.0426 70.6979 80.509 70.6979C81.997 70.6979 83.0983 70.1154 83.8673 69.1643L82.534 67.9857C81.8924 68.5818 81.3235 68.8276 80.5408 68.8276C79.4987 68.8276 78.7615 68.2769 78.534 67.2167H84.2541C84.2678 67.0028 84.286 66.7844 84.286 66.6023C84.286 64.277 83.0255 62.1428 80.2814 62.1428ZM78.5067 65.7605C78.6887 64.7002 79.3213 64.0131 80.286 64.0131C81.2689 64.0131 81.8787 64.7184 82.0198 65.7605H78.5067Z" fill="#604337"/>
<path d="M91.0299 62.6024C89.3417 62.6024 88.3451 63.4443 88.0402 63.9812C88.1039 63.1985 88.5135 62.3567 90.0334 62.0518L94.5384 61.1599L94.1698 59.3214L89.7694 60.136C86.6887 60.7048 86.3201 63.3259 86.3201 65.7924C86.3201 68.9505 87.84 70.6979 90.6113 70.6979C93.1095 70.6979 94.9207 68.814 94.9207 66.5432C94.9252 64.2907 93.1186 62.6024 91.0299 62.6024ZM90.6477 68.6911C89.4964 68.6911 88.6409 67.74 88.6409 66.5751C88.6409 65.3783 89.4372 64.4272 90.6204 64.4272C91.7717 64.4272 92.6272 65.3965 92.6272 66.5751C92.6272 67.7537 91.8445 68.6911 90.6477 68.6911Z" fill="#604337"/>
<path d="M96.4633 68.6274C96.3541 68.6274 96.0629 68.5955 95.9719 68.5819L95.8171 70.4658C96.122 70.5432 96.6908 70.6023 96.9957 70.6023C99.0481 70.6023 99.9855 69.7286 99.9855 64.2861H102.07V70.5113H104.4V62.293H97.7966C97.7966 68.1223 97.337 68.6274 96.4633 68.6274Z" fill="#604337"/>
<path d="M109.464 62.2975H107.134V70.5158H109.464V62.2975Z" fill="#604337"/>
<path d="M109.523 59.3214H107.071V61.392H109.523V59.3214Z" fill="#604337"/>
</svg>
